<?xml version="1.0" standalone="no"?><!DOCTYPE svg PUBLIC "-//W3C//DTD SVG 1.1//EN" "http://www.w3.org/Graphics/SVG/1.1/DTD/svg11.dtd"><svg t="1659712376807" class="icon" viewBox="0 0 1024 1024" version="1.1" xmlns="http://www.w3.org/2000/svg" p-id="17525" xmlns:xlink="http://www.w3.org/1999/xlink" width="200" height="200"><defs><style type="text/css">@font-face { font-family: element-icons; src: url("chrome-extension://moombeodfomdpjnpocobemoiaemednkg/fonts/element-icons.woff") format("woff"), url("chrome-extension://moombeodfomdpjnpocobemoiaemednkg/fonts/element-icons.ttf ") format("truetype"); }
@font-face { font-family: feedback-iconfont; src: url("//at.alicdn.com/t/font_1031158_u69w8yhxdu.woff2?t=1630033759944") format("woff2"), url("//at.alicdn.com/t/font_1031158_u69w8yhxdu.woff?t=1630033759944") format("woff"), url("//at.alicdn.com/t/font_1031158_u69w8yhxdu.ttf?t=1630033759944") format("truetype"); }
</style></defs><path d="M512 355.84m-199.68 0a199.68 199.68 0 1 0 399.36 0 199.68 199.68 0 1 0-399.36 0Z" fill="#FFFFFF" p-id="17526"></path><path d="M512 576c-121.344 0-220.16-98.816-220.16-220.16s98.816-220.16 220.16-220.16 220.16 98.816 220.16 220.16-98.816 220.16-220.16 220.16z m0-399.36c-98.816 0-179.2 80.384-179.2 179.2s80.384 179.2 179.2 179.2 179.2-80.384 179.2-179.2-80.384-179.2-179.2-179.2z" fill="#80878B" p-id="17527"></path><path d="M624.64 417.28c0 61.952-50.176 112.64-112.64 112.64s-112.64-50.688-112.64-112.64" fill="#FAB90A" p-id="17528"></path><path d="M215.04 867.84c0-163.84 133.12-296.96 296.96-296.96s296.96 133.12 296.96 296.96" fill="#FFFFFF" p-id="17529"></path><path d="M808.96 888.32c-11.264 0-20.48-9.216-20.48-20.48 0-152.576-123.904-276.48-276.48-276.48s-276.48 123.904-276.48 276.48c0 11.264-9.216 20.48-20.48 20.48s-20.48-9.216-20.48-20.48c0-175.104 142.336-317.44 317.44-317.44s317.44 142.336 317.44 317.44c0 11.264-9.216 20.48-20.48 20.48z" fill="#80878B" p-id="17530"></path></svg>